<?xml version="1.0" encoding="UTF-8" standalone="no"?>
<!DOCTYPE svg PUBLIC "-//W3C//DTD SVG 1.1//EN"
 "http://www.w3.org/Graphics/SVG/1.1/DTD/svg11.dtd">
<!-- Generated by graphviz version 2.28.0 (20111028.1807)
 -->
<!-- Title: G Pages: 1 -->
<svg width="536pt" height="619pt"
 viewBox="0.00 0.00 536.00 619.00" xmlns="http://www.w3.org/2000/svg" xmlns:xlink="http://www.w3.org/1999/xlink">
<g id="graph1" class="graph" transform="scale(1 1) rotate(0) translate(4 615)">
<title>G</title>
<polygon fill="white" stroke="white" points="-4,5 -4,-615 533,-615 533,5 -4,5"/>
<g id="graph2" class="cluster"><title>cluster_Gumdrop</title>
<polyline fill="none" stroke="gray" points="212,-44 508,-44 "/>
<path fill="none" stroke="gray" d="M508,-44C514,-44 520,-50 520,-56"/>
<polyline fill="none" stroke="gray" points="520,-56 520,-591 "/>
<path fill="none" stroke="gray" d="M520,-591C520,-597 514,-603 508,-603"/>
<polyline fill="none" stroke="gray" points="508,-603 212,-603 "/>
<path fill="none" stroke="gray" d="M212,-603C206,-603 200,-597 200,-591"/>
<polyline fill="none" stroke="gray" points="200,-591 200,-56 "/>
<path fill="none" stroke="gray" d="M200,-56C200,-50 206,-44 212,-44"/>
<text text-anchor="middle" x="360" y="-588" font-family="Times,serif" font-size="11.00" fill="gray">Gumdrop</text>
</g>
<!-- \\Gumdrop\\Application -->
<g id="node2" class="node"><title>\\Gumdrop\\Application</title>
<a xlink:href="Application.html" xlink:title="Application" target="_parent">
<polygon fill="none" stroke="black" points="492.113,-574 403.887,-574 403.887,-538 492.113,-538 492.113,-574"/>
<text text-anchor="middle" x="448" y="-551.6" font-family="Courier,monospace" font-size="11.00">Application</text>
</a>
</g>
<!-- \\Gumdrop\\Configuration -->
<g id="node3" class="node"><title>\\Gumdrop\\Configuration</title>
<a xlink:href="Configuration.html" xlink:title="Configuration" target="_parent">
<polygon fill="none" stroke="black" points="309.814,-354 208.186,-354 208.186,-318 309.814,-318 309.814,-354"/>
<text text-anchor="middle" x="259" y="-331.6" font-family="Courier,monospace" font-size="11.00">Configuration</text>
</a>
</g>
<!-- \\Iterator -->
<g id="node18" class="node"><title>\\Iterator</title>
<ellipse fill="none" stroke="black" cx="67" cy="-398" rx="44.6347" ry="18"/>
<text text-anchor="middle" x="67" y="-392.4" font-family="Times,serif" font-size="14.00" fill="gray">\\Iterator</text>
</g>
<!-- \\Gumdrop\\Configuration&#45;&gt;\\Iterator -->
<g id="edge9" class="edge"><title>\\Gumdrop\\Configuration&#45;&gt;\\Iterator</title>
<path fill="none" stroke="black" stroke-dasharray="1,5" d="M208.08,-352.29C178.279,-362.014 140.774,-374.253 112.072,-383.618"/>
<polygon fill="none" stroke="black" points="110.736,-380.373 102.315,-386.803 112.907,-387.028 110.736,-380.373"/>
</g>
<!-- \\Countable -->
<g id="node20" class="node"><title>\\Countable</title>
<ellipse fill="none" stroke="black" cx="67" cy="-344" rx="56.1921" ry="18"/>
<text text-anchor="middle" x="67" y="-338.4" font-family="Times,serif" font-size="14.00" fill="gray">\\Countable</text>
</g>
<!-- \\Gumdrop\\Configuration&#45;&gt;\\Countable -->
<g id="edge11" class="edge"><title>\\Gumdrop\\Configuration&#45;&gt;\\Countable</title>
<path fill="none" stroke="black" stroke-dasharray="1,5" d="M208.08,-338.102C185.183,-339.066 157.738,-340.222 133.232,-341.253"/>
<polygon fill="none" stroke="black" points="132.776,-337.769 122.932,-341.687 133.07,-344.763 132.776,-337.769"/>
</g>
<!-- \\ArrayAccess -->
<g id="node22" class="node"><title>\\ArrayAccess</title>
<ellipse fill="none" stroke="black" cx="67" cy="-290" rx="66.044" ry="18"/>
<text text-anchor="middle" x="67" y="-284.4" font-family="Times,serif" font-size="14.00" fill="gray">\\ArrayAccess</text>
</g>
<!-- \\Gumdrop\\Configuration&#45;&gt;\\ArrayAccess -->
<g id="edge13" class="edge"><title>\\Gumdrop\\Configuration&#45;&gt;\\ArrayAccess</title>
<path fill="none" stroke="black" stroke-dasharray="1,5" d="M208.08,-323.914C183.121,-317.871 152.759,-310.521 126.69,-304.209"/>
<polygon fill="none" stroke="black" points="127.473,-300.798 116.93,-301.846 125.825,-307.601 127.473,-300.798"/>
</g>
<!-- \\Gumdrop\\Engine -->
<g id="node4" class="node"><title>\\Gumdrop\\Engine</title>
<a xlink:href="Engine.html" xlink:title="Engine" target="_parent">
<polygon fill="none" stroke="black" points="475.608,-520 420.392,-520 420.392,-484 475.608,-484 475.608,-520"/>
<text text-anchor="middle" x="448" y="-497.6" font-family="Courier,monospace" font-size="11.00">Engine</text>
</a>
</g>
<!-- \\Gumdrop\\Exception -->
<g id="node5" class="node"><title>\\Gumdrop\\Exception</title>
<a xlink:href="Exception.html" xlink:title="Exception" target="_parent">
<polygon fill="none" stroke="black" points="485.911,-196 410.089,-196 410.089,-160 485.911,-160 485.911,-196"/>
<text text-anchor="middle" x="448" y="-173.6" font-family="Courier,monospace" font-size="11.00">Exception</text>
</a>
</g>
<!-- \\Exception -->
<g id="node14" class="node"><title>\\Exception</title>
<ellipse fill="none" stroke="black" cx="259" cy="-18" rx="52.7417" ry="18"/>
<text text-anchor="middle" x="259" y="-12.4" font-family="Times,serif" font-size="14.00" fill="gray">\Exception</text>
</g>
<!-- \\Gumdrop\\Exception&#45;&gt;\\Exception -->
<g id="edge3" class="edge"><title>\\Gumdrop\\Exception&#45;&gt;\\Exception</title>
<path fill="none" stroke="black" d="M410.25,-166.535C401.055,-162.561 391.644,-157.44 384,-151 339.03,-113.112 357.058,-77.7831 312,-40 310.23,-38.5159 308.346,-37.1187 306.382,-35.8048"/>
<polygon fill="none" stroke="black" points="307.787,-32.5727 297.384,-30.5679 304.266,-38.6228 307.787,-32.5727"/>
</g>
<!-- \\Gumdrop\\FileHandler -->
<g id="node6" class="node"><title>\\Gumdrop\\FileHandler</title>
<a xlink:href="FileHandler.html" xlink:title="FileHandler" target="_parent">
<polygon fill="none" stroke="black" points="492.113,-412 403.887,-412 403.887,-376 492.113,-376 492.113,-412"/>
<text text-anchor="middle" x="448" y="-389.6" font-family="Courier,monospace" font-size="11.00">FileHandler</text>
</a>
</g>
<!-- \\Gumdrop\\Page -->
<g id="node7" class="node"><title>\\Gumdrop\\Page</title>
<a xlink:href="Page.html" xlink:title="Page" target="_parent">
<polygon fill="none" stroke="black" points="475,-358 421,-358 421,-322 475,-322 475,-358"/>
<text text-anchor="middle" x="448" y="-335.6" font-family="Courier,monospace" font-size="11.00">Page</text>
</a>
</g>
<!-- \\Gumdrop\\PageCollection -->
<g id="node8" class="node"><title>\\Gumdrop\\PageCollection</title>
<a xlink:href="PageCollection.html" xlink:title="PageCollection" target="_parent">
<polygon fill="none" stroke="black" points="502.416,-466 393.584,-466 393.584,-430 502.416,-430 502.416,-466"/>
<text text-anchor="middle" x="448" y="-443.6" font-family="Courier,monospace" font-size="11.00">PageCollection</text>
</a>
</g>
<!-- \\Gumdrop\\PageCollection&#45;&gt;\\Iterator -->
<g id="edge15" class="edge"><title>\\Gumdrop\\PageCollection&#45;&gt;\\Iterator</title>
<path fill="none" stroke="black" stroke-dasharray="1,5" d="M258,-398C212.337,-388.783 159.234,-389.735 120.795,-392.442"/>
<polygon fill="none" stroke="black" points="120.062,-388.988 110.36,-393.245 120.599,-395.967 120.062,-388.988"/>
</g>
<!-- \\Gumdrop\\PageCollection&#45;&gt;\\Countable -->
<g id="edge17" class="edge"><title>\\Gumdrop\\PageCollection&#45;&gt;\\Countable</title>
<path fill="none" stroke="black" stroke-dasharray="1,5" d="M393.41,-431.772C356.248,-420.988 305.459,-407.176 260,-398"/>
<path fill="none" stroke="black" stroke-dasharray="1,5" d="M258,-398C209.091,-388.128 154.403,-372.034 116.303,-359.98"/>
<polygon fill="none" stroke="black" points="117.093,-356.558 106.503,-356.853 114.965,-363.227 117.093,-356.558"/>
</g>
<!-- \\Gumdrop\\PageCollection&#45;&gt;\\ArrayAccess -->
<g id="edge19" class="edge"><title>\\Gumdrop\\PageCollection&#45;&gt;\\ArrayAccess</title>
<path fill="none" stroke="black" stroke-dasharray="1,5" d="M396.848,-429.893C392.278,-427.261 387.906,-424.305 384,-421 338.823,-382.779 362.799,-339.353 312,-309 258.571,-277.076 186.396,-275.465 134.423,-279.929"/>
<polygon fill="none" stroke="black" points="133.93,-276.46 124.309,-280.896 134.597,-283.428 133.93,-276.46"/>
</g>
<!-- \\Gumdrop\\PageConfiguration -->
<g id="node9" class="node"><title>\\Gumdrop\\PageConfiguration</title>
<a xlink:href="PageConfiguration.html" xlink:title="PageConfiguration" target="_parent">
<polygon fill="none" stroke="black" points="512.218,-304 383.782,-304 383.782,-268 512.218,-268 512.218,-304"/>
<text text-anchor="middle" x="448" y="-281.6" font-family="Courier,monospace" font-size="11.00">PageConfiguration</text>
</a>
</g>
<!-- \\Gumdrop\\PageConfiguration&#45;&gt;\\Gumdrop\\Configuration -->
<g id="edge5" class="edge"><title>\\Gumdrop\\PageConfiguration&#45;&gt;\\Gumdrop\\Configuration</title>
<path fill="none" stroke="black" d="M383.69,-302.928C363.02,-308.454 340.145,-314.571 319.746,-320.025"/>
<polygon fill="none" stroke="black" points="318.708,-316.68 309.951,-322.644 320.516,-323.442 318.708,-316.68"/>
</g>
<!-- \\Gumdrop\\SiteConfiguration -->
<g id="node10" class="node"><title>\\Gumdrop\\SiteConfiguration</title>
<a xlink:href="SiteConfiguration.html" xlink:title="SiteConfiguration" target="_parent">
<polygon fill="none" stroke="black" points="512.218,-250 383.782,-250 383.782,-214 512.218,-214 512.218,-250"/>
<text text-anchor="middle" x="448" y="-227.6" font-family="Courier,monospace" font-size="11.00">SiteConfiguration</text>
</a>
</g>
<!-- \\Gumdrop\\SiteConfiguration&#45;&gt;\\Gumdrop\\Configuration -->
<g id="edge7" class="edge"><title>\\Gumdrop\\SiteConfiguration&#45;&gt;\\Gumdrop\\Configuration</title>
<path fill="none" stroke="black" d="M401.256,-250.007C395.337,-252.798 389.446,-255.819 384,-259 351.809,-277.801 347.355,-291.593 313.604,-312.661"/>
<polygon fill="none" stroke="black" points="311.676,-309.736 304.893,-317.874 315.271,-315.742 311.676,-309.736"/>
</g>
<!-- \\Gumdrop\\TwigEnvironments -->
<g id="node11" class="node"><title>\\Gumdrop\\TwigEnvironments</title>
<a xlink:href="TwigEnvironments.html" xlink:title="TwigEnvironments" target="_parent">
<polygon fill="none" stroke="black" points="508.618,-142 387.382,-142 387.382,-106 508.618,-106 508.618,-142"/>
<text text-anchor="middle" x="448" y="-119.6" font-family="Courier,monospace" font-size="11.00">TwigEnvironments</text>
</a>
</g>
<!-- \\Gumdrop\\TwigFileHandler -->
<g id="node12" class="node"><title>\\Gumdrop\\TwigFileHandler</title>
<a xlink:href="TwigFileHandler.html" xlink:title="TwigFileHandler" target="_parent">
<polygon fill="none" stroke="black" points="505.516,-88 390.484,-88 390.484,-52 505.516,-52 505.516,-88"/>
<text text-anchor="middle" x="448" y="-65.6" font-family="Courier,monospace" font-size="11.00">TwigFileHandler</text>
</a>
</g>
</g>
</svg>
