<?xml version="1.0" encoding="UTF-8" standalone="no"?>
<!DOCTYPE svg PUBLIC "-//W3C//DTD SVG 1.1//EN"
 "http://www.w3.org/Graphics/SVG/1.1/DTD/svg11.dtd">
<!-- Generated by graphviz version 2.28.0 (20111028.1807)
 -->
<!-- Title: G Pages: 1 -->
<svg width="550pt" height="565pt"
 viewBox="0.00 0.00 550.00 565.00" xmlns="http://www.w3.org/2000/svg" xmlns:xlink="http://www.w3.org/1999/xlink">
<g id="graph1" class="graph" transform="scale(1 1) rotate(0) translate(4 561)">
<title>G</title>
<polygon fill="white" stroke="white" points="-4,5 -4,-561 547,-561 547,5 -4,5"/>
<g id="graph2" class="cluster"><title>cluster_Gumdrop</title>
<polyline fill="none" stroke="gray" points="212,-44 522,-44 "/>
<path fill="none" stroke="gray" d="M522,-44C528,-44 534,-50 534,-56"/>
<polyline fill="none" stroke="gray" points="534,-56 534,-537 "/>
<path fill="none" stroke="gray" d="M534,-537C534,-543 528,-549 522,-549"/>
<polyline fill="none" stroke="gray" points="522,-549 212,-549 "/>
<path fill="none" stroke="gray" d="M212,-549C206,-549 200,-543 200,-537"/>
<polyline fill="none" stroke="gray" points="200,-537 200,-56 "/>
<path fill="none" stroke="gray" d="M200,-56C200,-50 206,-44 212,-44"/>
<text text-anchor="middle" x="367" y="-534" font-family="Times,serif" font-size="11.00" fill="gray">Gumdrop</text>
</g>
<!-- \\Gumdrop\\Application -->
<g id="node2" class="node"><title>\\Gumdrop\\Application</title>
<a xlink:href="Application.html" xlink:title="Application" target="_parent">
<polygon fill="none" stroke="black" points="499.113,-520 410.887,-520 410.887,-484 499.113,-484 499.113,-520"/>
<text text-anchor="middle" x="455" y="-497.6" font-family="Courier,monospace" font-size="11.00">Application</text>
</a>
</g>
<!-- \\Gumdrop\\Configuration -->
<g id="node3" class="node"><title>\\Gumdrop\\Configuration</title>
<a xlink:href="Configuration.html" xlink:title="Configuration" target="_parent">
<polygon fill="none" stroke="black" points="309.814,-327 208.186,-327 208.186,-291 309.814,-291 309.814,-327"/>
<text text-anchor="middle" x="259" y="-304.6" font-family="Courier,monospace" font-size="11.00">Configuration</text>
</a>
</g>
<!-- \\Iterator -->
<g id="node17" class="node"><title>\\Iterator</title>
<ellipse fill="none" stroke="black" cx="67" cy="-371" rx="44.6347" ry="18"/>
<text text-anchor="middle" x="67" y="-365.4" font-family="Times,serif" font-size="14.00" fill="gray">\\Iterator</text>
</g>
<!-- \\Gumdrop\\Configuration&#45;&gt;\\Iterator -->
<g id="edge9" class="edge"><title>\\Gumdrop\\Configuration&#45;&gt;\\Iterator</title>
<path fill="none" stroke="black" stroke-dasharray="1,5" d="M208.08,-325.29C178.279,-335.014 140.774,-347.253 112.072,-356.618"/>
<polygon fill="none" stroke="black" points="110.736,-353.373 102.315,-359.803 112.907,-360.028 110.736,-353.373"/>
</g>
<!-- \\Countable -->
<g id="node19" class="node"><title>\\Countable</title>
<ellipse fill="none" stroke="black" cx="67" cy="-317" rx="56.1921" ry="18"/>
<text text-anchor="middle" x="67" y="-311.4" font-family="Times,serif" font-size="14.00" fill="gray">\\Countable</text>
</g>
<!-- \\Gumdrop\\Configuration&#45;&gt;\\Countable -->
<g id="edge11" class="edge"><title>\\Gumdrop\\Configuration&#45;&gt;\\Countable</title>
<path fill="none" stroke="black" stroke-dasharray="1,5" d="M208.08,-311.102C185.183,-312.066 157.738,-313.222 133.232,-314.253"/>
<polygon fill="none" stroke="black" points="132.776,-310.769 122.932,-314.687 133.07,-317.763 132.776,-310.769"/>
</g>
<!-- \\ArrayAccess -->
<g id="node21" class="node"><title>\\ArrayAccess</title>
<ellipse fill="none" stroke="black" cx="67" cy="-263" rx="66.044" ry="18"/>
<text text-anchor="middle" x="67" y="-257.4" font-family="Times,serif" font-size="14.00" fill="gray">\\ArrayAccess</text>
</g>
<!-- \\Gumdrop\\Configuration&#45;&gt;\\ArrayAccess -->
<g id="edge13" class="edge"><title>\\Gumdrop\\Configuration&#45;&gt;\\ArrayAccess</title>
<path fill="none" stroke="black" stroke-dasharray="1,5" d="M208.08,-296.914C183.121,-290.871 152.759,-283.521 126.69,-277.209"/>
<polygon fill="none" stroke="black" points="127.473,-273.798 116.93,-274.846 125.825,-280.601 127.473,-273.798"/>
</g>
<!-- \\Gumdrop\\Engine -->
<g id="node4" class="node"><title>\\Gumdrop\\Engine</title>
<a xlink:href="Engine.html" xlink:title="Engine" target="_parent">
<polygon fill="none" stroke="black" points="482.608,-466 427.392,-466 427.392,-430 482.608,-430 482.608,-466"/>
<text text-anchor="middle" x="455" y="-443.6" font-family="Courier,monospace" font-size="11.00">Engine</text>
</a>
</g>
<!-- \\Gumdrop\\Exception -->
<g id="node5" class="node"><title>\\Gumdrop\\Exception</title>
<a xlink:href="Exception.html" xlink:title="Exception" target="_parent">
<polygon fill="none" stroke="black" points="492.911,-142 417.089,-142 417.089,-106 492.911,-106 492.911,-142"/>
<text text-anchor="middle" x="455" y="-119.6" font-family="Courier,monospace" font-size="11.00">Exception</text>
</a>
</g>
<!-- \\Exception -->
<g id="node13" class="node"><title>\\Exception</title>
<ellipse fill="none" stroke="black" cx="259" cy="-18" rx="52.7417" ry="18"/>
<text text-anchor="middle" x="259" y="-12.4" font-family="Times,serif" font-size="14.00" fill="gray">\Exception</text>
</g>
<!-- \\Gumdrop\\Exception&#45;&gt;\\Exception -->
<g id="edge3" class="edge"><title>\\Gumdrop\\Exception&#45;&gt;\\Exception</title>
<path fill="none" stroke="black" d="M417.075,-112.135C406.113,-107.989 394.293,-102.878 384,-97 348.558,-76.7599 347.112,-60.8065 312,-40 309.51,-38.5243 306.902,-37.0962 304.237,-35.7246"/>
<polygon fill="none" stroke="black" points="305.571,-32.4822 295.043,-31.2905 302.53,-38.7872 305.571,-32.4822"/>
</g>
<!-- \\Gumdrop\\FileHandler -->
<g id="node6" class="node"><title>\\Gumdrop\\FileHandler</title>
<a xlink:href="FileHandler.html" xlink:title="FileHandler" target="_parent">
<polygon fill="none" stroke="black" points="499.113,-358 410.887,-358 410.887,-322 499.113,-322 499.113,-358"/>
<text text-anchor="middle" x="455" y="-335.6" font-family="Courier,monospace" font-size="11.00">FileHandler</text>
</a>
</g>
<!-- \\Gumdrop\\GlobalConfiguration -->
<g id="node7" class="node"><title>\\Gumdrop\\GlobalConfiguration</title>
<a xlink:href="GlobalConfiguration.html" xlink:title="GlobalConfiguration" target="_parent">
<polygon fill="none" stroke="black" points="525.921,-304 384.079,-304 384.079,-268 525.921,-268 525.921,-304"/>
<text text-anchor="middle" x="455" y="-281.6" font-family="Courier,monospace" font-size="11.00">GlobalConfiguration</text>
</a>
</g>
<!-- \\Gumdrop\\GlobalConfiguration&#45;&gt;\\Gumdrop\\Configuration -->
<g id="edge5" class="edge"><title>\\Gumdrop\\GlobalConfiguration&#45;&gt;\\Gumdrop\\Configuration</title>
<path fill="none" stroke="black" d="M384.236,-294.271C363.234,-296.761 340.378,-299.471 320.064,-301.879"/>
<polygon fill="none" stroke="black" points="319.524,-298.418 310.006,-303.071 320.349,-305.37 319.524,-298.418"/>
</g>
<!-- \\Gumdrop\\Page -->
<g id="node8" class="node"><title>\\Gumdrop\\Page</title>
<a xlink:href="Page.html" xlink:title="Page" target="_parent">
<polygon fill="none" stroke="black" points="482,-250 428,-250 428,-214 482,-214 482,-250"/>
<text text-anchor="middle" x="455" y="-227.6" font-family="Courier,monospace" font-size="11.00">Page</text>
</a>
</g>
<!-- \\Gumdrop\\PageCollection -->
<g id="node9" class="node"><title>\\Gumdrop\\PageCollection</title>
<a xlink:href="PageCollection.html" xlink:title="PageCollection" target="_parent">
<polygon fill="none" stroke="black" points="509.416,-412 400.584,-412 400.584,-376 509.416,-376 509.416,-412"/>
<text text-anchor="middle" x="455" y="-389.6" font-family="Courier,monospace" font-size="11.00">PageCollection</text>
</a>
</g>
<!-- \\Gumdrop\\PageCollection&#45;&gt;\\Iterator -->
<g id="edge15" class="edge"><title>\\Gumdrop\\PageCollection&#45;&gt;\\Iterator</title>
<path fill="none" stroke="black" stroke-dasharray="1,5" d="M258,-371C212.247,-365.099 159.78,-365.646 121.589,-367.356"/>
<polygon fill="none" stroke="black" points="121.03,-363.879 111.213,-367.865 121.373,-370.871 121.03,-363.879"/>
</g>
<!-- \\Gumdrop\\PageCollection&#45;&gt;\\Countable -->
<g id="edge17" class="edge"><title>\\Gumdrop\\PageCollection&#45;&gt;\\Countable</title>
<path fill="none" stroke="black" stroke-dasharray="1,5" d="M400.44,-387.949C361.464,-383.473 307.429,-377.117 260,-371"/>
<path fill="none" stroke="black" stroke-dasharray="1,5" d="M258,-371C207.422,-364.477 151.491,-347.31 113.493,-334.067"/>
<polygon fill="none" stroke="black" points="114.348,-330.657 103.753,-330.621 112.013,-337.256 114.348,-330.657"/>
</g>
<!-- \\Gumdrop\\PageCollection&#45;&gt;\\ArrayAccess -->
<g id="edge19" class="edge"><title>\\Gumdrop\\PageCollection&#45;&gt;\\ArrayAccess</title>
<path fill="none" stroke="black" stroke-dasharray="1,5" d="M400.552,-376.667C394.741,-373.836 389.096,-370.623 384,-367 343.65,-338.311 356.076,-304.548 312,-282 258.032,-254.391 188.433,-251.655 137.388,-254.642"/>
<polygon fill="none" stroke="black" points="136.855,-251.17 127.113,-255.335 137.326,-258.154 136.855,-251.17"/>
</g>
<!-- \\Gumdrop\\PageConfiguration -->
<g id="node10" class="node"><title>\\Gumdrop\\PageConfiguration</title>
<a xlink:href="PageConfiguration.html" xlink:title="PageConfiguration" target="_parent">
<polygon fill="none" stroke="black" points="519.218,-196 390.782,-196 390.782,-160 519.218,-160 519.218,-196"/>
<text text-anchor="middle" x="455" y="-173.6" font-family="Courier,monospace" font-size="11.00">PageConfiguration</text>
</a>
</g>
<!-- \\Gumdrop\\PageConfiguration&#45;&gt;\\Gumdrop\\Configuration -->
<g id="edge7" class="edge"><title>\\Gumdrop\\PageConfiguration&#45;&gt;\\Gumdrop\\Configuration</title>
<path fill="none" stroke="black" d="M399.163,-196.134C393.853,-198.771 388.7,-201.721 384,-205 346.866,-230.909 350.588,-255.17 314.377,-284.58"/>
<polygon fill="none" stroke="black" points="311.858,-282.099 306.015,-290.936 316.094,-287.671 311.858,-282.099"/>
</g>
<!-- \\Gumdrop\\Twig -->
<g id="node11" class="node"><title>\\Gumdrop\\Twig</title>
<a xlink:href="Twig.html" xlink:title="Twig" target="_parent">
<polygon fill="none" stroke="black" points="482,-88 428,-88 428,-52 482,-52 482,-88"/>
<text text-anchor="middle" x="455" y="-65.6" font-family="Courier,monospace" font-size="11.00">Twig</text>
</a>
</g>
</g>
</svg>
